<svg width="30" height="30" viewBox="0 0 30 30" fill="none" xmlns="http://www.w3.org/2000/svg">
<path d="M15.0016 7.64885C17.4066 7.64885 17.6814 7.64885 18.6434 7.71756C19.5367 7.78626 20.0177 7.92366 20.2926 7.99236C20.7049 8.12977 20.9797 8.33587 21.3233 8.67938C21.6669 9.0229 21.8043 9.2977 22.0104 9.70992C22.1479 10.0534 22.2853 10.4656 22.2853 11.3588C22.354 12.3206 22.354 12.5954 22.354 15C22.354 17.4046 22.354 17.6794 22.2853 18.6412C22.2166 19.5343 22.0792 20.0153 22.0104 20.2901C21.873 20.7023 21.6669 20.9771 21.3233 21.3206C20.9797 21.6641 20.7049 21.8015 20.2926 22.0076C19.949 22.145 19.5367 22.2824 18.6434 22.2824C17.6814 22.3511 17.4066 22.3511 15.0016 22.3511C12.5966 22.3511 12.3217 22.3511 11.3597 22.2824C10.4664 22.2137 9.98543 22.0763 9.71058 22.0076C9.29829 21.8702 9.02343 21.6641 8.67986 21.3206C8.33629 20.9771 8.19886 20.7023 7.99272 20.2901C7.85529 19.9465 7.71786 19.5343 7.71786 18.6412C7.64914 17.6794 7.64915 17.4046 7.64915 15C7.64915 12.5954 7.64914 12.3206 7.71786 11.3588C7.78657 10.4656 7.924 9.98473 7.99272 9.70992C8.13015 9.2977 8.33629 9.0229 8.67986 8.67938C9.02343 8.33587 9.29829 8.19847 9.71058 7.99236C10.0541 7.85496 10.4664 7.71756 11.3597 7.71756C12.3217 7.64885 12.5966 7.64885 15.0016 7.64885ZM15.0016 6C12.5966 6 12.253 6 11.291 6.06871C10.329 6.13741 9.71058 6.27482 9.09215 6.48092C8.47372 6.68703 7.99272 7.03054 7.51172 7.51146C7.03072 7.99237 6.68714 8.47328 6.481 9.0916C6.27486 9.64122 6.13743 10.3283 6.06872 11.2901C6 12.2519 6 12.5267 6 15C6 17.4046 6 17.7481 6.06872 18.7099C6.13743 19.6717 6.27486 20.2901 6.481 20.9084C6.68714 21.5267 7.03072 22.0076 7.51172 22.4885C7.99272 22.9695 8.47372 23.313 9.09215 23.5191C9.64186 23.7252 10.329 23.8626 11.291 23.9313C12.253 24 12.5279 24 15.0016 24C17.4066 24 17.7502 24 18.7122 23.9313C19.6742 23.8626 20.2926 23.7252 20.911 23.5191C21.5294 23.313 22.0104 22.9695 22.4914 22.4885C22.9724 22.0076 23.316 21.5267 23.5222 20.9084C23.7283 20.3588 23.8657 19.6717 23.9344 18.7099C24.0032 17.7481 24.0032 17.4733 24.0032 15C24.0032 12.5954 24.0032 12.2519 23.9344 11.2901C23.8657 10.3283 23.7283 9.70992 23.5222 9.0916C23.316 8.47328 22.9724 7.99237 22.4914 7.51146C22.0104 7.03054 21.5294 6.68703 20.911 6.48092C20.3613 6.27482 19.6742 6.13741 18.7122 6.06871C17.7502 6 17.4066 6 15.0016 6Z" fill="white"/>
<path d="M15.0013 10.3281C12.4589 10.3281 10.3975 12.3892 10.3975 14.9312C10.3975 17.4732 12.4589 19.5343 15.0013 19.5343C17.5438 19.5343 19.6052 17.4732 19.6052 14.9312C19.6052 12.3892 17.5438 10.3281 15.0013 10.3281ZM15.0013 17.9541C13.3522 17.9541 12.0466 16.6488 12.0466 14.9999C12.0466 13.351 13.3522 12.0457 15.0013 12.0457C16.6505 12.0457 17.956 13.351 17.956 14.9999C17.956 16.5801 16.6505 17.9541 15.0013 17.9541Z" fill="white"/>
<path d="M20.8422 10.191C20.8422 10.8094 20.3612 11.2903 19.7427 11.2903C19.1243 11.2903 18.6433 10.8094 18.6433 10.191C18.6433 9.57272 19.1243 9.0918 19.7427 9.0918C20.3612 9.0918 20.8422 9.57272 20.8422 10.191Z" fill="white"/>
</svg>
