<svg width="143" height="40" viewBox="0 0 143 40" fill="none" xmlns="http://www.w3.org/2000/svg">
<path d="M50 40H40.7703V22.1538L24.9668 12.8462L9.22975 22.1538V36.2308H11.6866V24.7692L24.9668 16.9231L38.247 24.7692V40H34.9934V27.0769L24.9668 21.2308L15.0066 27.0769V40H5.90969V19.7692L24.9668 8.53846L44.0239 19.7692V36.2308H46.6799V17L24.9668 4.23077L3.25365 17V40H0V14.6923L24.9668 0L50 14.6923V40Z" fill="#C5A47E"/>
<path d="M61.2251 20H62.2891L63.5701 10.431L66.8671 19.293H67.6301L70.9271 10.431L72.2081 20H73.2721L71.7741 8.44999H70.6471L67.2451 17.487L63.8501 8.44999H62.7231L61.2251 20Z" fill="white"/>
<path d="M84.2923 20.224C85.0996 20.224 85.8556 20.07 86.5603 19.762C87.265 19.454 87.8833 19.027 88.4153 18.481C88.9473 17.9303 89.3626 17.2933 89.6613 16.57C89.9646 15.842 90.1163 15.0627 90.1163 14.232C90.1163 13.3967 89.9646 12.6173 89.6613 11.894C89.3626 11.1707 88.9473 10.536 88.4153 9.98999C87.8833 9.43932 87.265 9.00999 86.5603 8.70199C85.8556 8.39399 85.0996 8.23999 84.2923 8.23999C83.485 8.23999 82.729 8.39399 82.0243 8.70199C81.3196 9.00999 80.7013 9.43932 80.1693 9.98999C79.6373 10.536 79.2196 11.1707 78.9163 11.894C78.6176 12.6173 78.4683 13.3967 78.4683 14.232C78.4683 15.0627 78.6176 15.842 78.9163 16.57C79.2196 17.2933 79.6373 17.9303 80.1693 18.481C80.7013 19.027 81.3196 19.454 82.0243 19.762C82.729 20.07 83.485 20.224 84.2923 20.224ZM84.2923 19.195C83.6343 19.195 83.0206 19.069 82.4513 18.817C81.8866 18.565 81.3896 18.2127 80.9603 17.76C80.5356 17.3073 80.2043 16.78 79.9663 16.178C79.7283 15.576 79.6093 14.9273 79.6093 14.232C79.6093 13.5367 79.7283 12.888 79.9663 12.286C80.2043 11.684 80.5356 11.1567 80.9603 10.704C81.3896 10.2513 81.8866 9.89899 82.4513 9.64699C83.0206 9.39499 83.6343 9.26899 84.2923 9.26899C84.9503 9.26899 85.5616 9.39499 86.1263 9.64699C86.6909 9.89899 87.1856 10.2513 87.6103 10.704C88.0396 11.1567 88.3733 11.684 88.6113 12.286C88.8493 12.888 88.9683 13.5367 88.9683 14.232C88.9683 14.9273 88.8493 15.576 88.6113 16.178C88.3733 16.78 88.0396 17.3073 87.6103 17.76C87.1856 18.2127 86.6909 18.565 86.1263 18.817C85.5616 19.069 84.9503 19.195 84.2923 19.195Z" fill="white"/>
<path d="M95.9753 20H98.5793C99.4006 20 100.164 19.8553 100.868 19.566C101.578 19.272 102.196 18.8637 102.723 18.341C103.255 17.8137 103.668 17.2 103.962 16.5C104.256 15.8 104.403 15.044 104.403 14.232C104.403 13.42 104.254 12.664 103.955 11.964C103.661 11.2593 103.248 10.6457 102.716 10.123C102.189 9.59566 101.573 9.18499 100.868 8.89099C100.164 8.59699 99.4006 8.44999 98.5793 8.44999H95.9753V20ZM97.0393 19.048V9.40199H98.4813C99.158 9.40199 99.788 9.52566 100.371 9.77299C100.955 10.0157 101.463 10.3563 101.897 10.795C102.336 11.2337 102.677 11.7447 102.919 12.328C103.162 12.9113 103.283 13.5437 103.283 14.225C103.283 14.9063 103.162 15.541 102.919 16.129C102.677 16.7123 102.336 17.2233 101.897 17.662C101.463 18.096 100.955 18.4367 100.371 18.684C99.788 18.9267 99.158 19.048 98.4813 19.048H97.0393Z" fill="white"/>
<path d="M110.246 20H116.063V19.062H111.31V14.68H115.895V13.742H111.31V9.38799H116.063V8.44999H110.246V20Z" fill="white"/>
<path d="M121.974 20H123.038V15.135H124.354L128.036 20H129.387L125.544 15.037C126.5 14.9343 127.259 14.5867 127.819 13.994C128.379 13.4013 128.659 12.6407 128.659 11.712C128.659 10.6947 128.327 9.89666 127.665 9.31799C127.002 8.73932 126.104 8.44999 124.97 8.44999H121.974V20ZM123.038 14.211V9.31799H124.718C125.609 9.31799 126.307 9.53499 126.811 9.96899C127.315 10.3983 127.567 10.9887 127.567 11.74C127.567 12.5007 127.31 13.1027 126.797 13.546C126.288 13.9893 125.595 14.211 124.718 14.211H123.038Z" fill="white"/>
<path d="M134.563 20H135.627V10.277L141.829 20H142.893V8.44999H141.829V18.187L135.627 8.44999H134.563V20Z" fill="white"/>
<path d="M61.8831 36H62.9471V30.68H69.2541V36H70.3111V24.45H69.2541V29.742H62.9471V24.45H61.8831V36Z" fill="white"/>
<path d="M81.9954 36.224C82.8027 36.224 83.5587 36.07 84.2634 35.762C84.9681 35.454 85.5864 35.027 86.1184 34.481C86.6504 33.9303 87.0657 33.2933 87.3644 32.57C87.6677 31.842 87.8194 31.0627 87.8194 30.232C87.8194 29.3967 87.6677 28.6173 87.3644 27.894C87.0657 27.1707 86.6504 26.536 86.1184 25.99C85.5864 25.4393 84.9681 25.01 84.2634 24.702C83.5587 24.394 82.8027 24.24 81.9954 24.24C81.1881 24.24 80.4321 24.394 79.7274 24.702C79.0227 25.01 78.4044 25.4393 77.8724 25.99C77.3404 26.536 76.9227 27.1707 76.6194 27.894C76.3207 28.6173 76.1714 29.3967 76.1714 30.232C76.1714 31.0627 76.3207 31.842 76.6194 32.57C76.9227 33.2933 77.3404 33.9303 77.8724 34.481C78.4044 35.027 79.0227 35.454 79.7274 35.762C80.4321 36.07 81.1881 36.224 81.9954 36.224ZM81.9954 35.195C81.3374 35.195 80.7237 35.069 80.1544 34.817C79.5897 34.565 79.0927 34.2127 78.6634 33.76C78.2387 33.3073 77.9074 32.78 77.6694 32.178C77.4314 31.576 77.3124 30.9273 77.3124 30.232C77.3124 29.5367 77.4314 28.888 77.6694 28.286C77.9074 27.684 78.2387 27.1567 78.6634 26.704C79.0927 26.2513 79.5897 25.899 80.1544 25.647C80.7237 25.395 81.3374 25.269 81.9954 25.269C82.6534 25.269 83.2647 25.395 83.8294 25.647C84.3941 25.899 84.8887 26.2513 85.3134 26.704C85.7427 27.1567 86.0764 27.684 86.3144 28.286C86.5524 28.888 86.6714 29.5367 86.6714 30.232C86.6714 30.9273 86.5524 31.576 86.3144 32.178C86.0764 32.78 85.7427 33.3073 85.3134 33.76C84.8887 34.2127 84.3941 34.565 83.8294 34.817C83.2647 35.069 82.6534 35.195 81.9954 35.195Z" fill="white"/>
<path d="M93.0204 36H94.0844L95.3654 26.431L98.6624 35.293H99.4254L102.722 26.431L104.003 36H105.067L103.569 24.45H102.442L99.0404 33.487L95.6454 24.45H94.5184L93.0204 36Z" fill="white"/>
<path d="M110.971 36H116.788V35.062H112.035V30.68H116.62V29.742H112.035V25.388H116.788V24.45H110.971V36Z" fill="white"/>
</svg>
