<svg width="30" height="30" viewBox="0 0 30 30" fill="none" xmlns="http://www.w3.org/2000/svg">
<path d="M21.8448 8.05465L5.38236 13.9773C4.84914 14.1691 4.88145 14.8756 5.43033 15.0252L9.61362 16.1656L11.1748 20.7391C11.3379 21.2168 11.9936 21.3617 12.3732 21.0038L14.5361 18.965L18.7798 21.8408C19.2992 22.1928 20.0388 21.9313 20.1707 21.3491L22.9813 8.94321C23.119 8.33553 22.4714 7.82923 21.8448 8.05465ZM19.7809 10.8078L12.1341 17.0506C12.0579 17.1128 12.0094 17.199 11.9981 17.2923L11.7037 19.7085C11.6941 19.7873 11.5746 19.7977 11.5491 19.722L10.3379 16.1187C10.2824 15.9537 10.3547 15.7749 10.5137 15.6839L19.5437 10.5135C19.7513 10.3945 19.9639 10.6584 19.7809 10.8078Z" fill="white"/>
</svg>
