<svg width="30" height="30" viewBox="0 0 30 30" fill="none" xmlns="http://www.w3.org/2000/svg">
<path d="M5.8999 20.4293C7.56101 21.4537 9.51101 22 11.6055 22C18.5388 22 22.511 16.4683 22.2221 11.4829C22.9443 11.0049 23.5943 10.3903 24.0999 9.63904C23.4499 9.91221 22.7277 10.1171 21.9332 10.1854C22.7277 9.77562 23.3055 9.0244 23.5944 8.20489C22.8721 8.61465 22.0777 8.88781 21.211 9.09269C20.561 8.40976 19.5499 8 18.4666 8C16.0832 8 14.2777 10.1171 14.8555 12.3707C11.7499 12.2342 9.00546 10.8 7.12768 8.68293C6.11657 10.2537 6.62213 12.3707 8.28324 13.3951C7.63324 13.3951 7.05546 13.1903 6.62212 12.9854C6.5499 14.6244 7.84991 16.1268 9.65546 16.4683C9.14991 16.6049 8.57213 16.6049 7.99435 16.5366C8.4999 17.9707 9.87213 18.9951 11.461 18.9951C9.87213 20.0878 7.8499 20.6342 5.8999 20.4293Z" fill="white"/>
</svg>
